<svg xmlns="http://www.w3.org/2000/svg" xmlns:xlink="http://www.w3.org/1999/xlink" width="46" zoomAndPan="magnify" viewBox="0 0 34.5 34.5" height="46" preserveAspectRatio="xMidYMid meet" version="1.0"><defs><clipPath id="54f0626616"><path d="M 0 0 L 34.007812 0 L 34.007812 34.007812 L 0 34.007812 Z M 0 0 " clip-rule="nonzero"/></clipPath><clipPath id="2d42079489"><path d="M 17.003906 0 C 7.613281 0 0 7.613281 0 17.003906 C 0 26.394531 7.613281 34.007812 17.003906 34.007812 C 26.394531 34.007812 34.007812 26.394531 34.007812 17.003906 C 34.007812 7.613281 26.394531 0 17.003906 0 Z M 17.003906 0 " clip-rule="nonzero"/></clipPath><clipPath id="0bf7eed05b"><path d="M 18.863281 5.769531 L 25.230469 5.769531 L 25.230469 26.667969 L 18.863281 26.667969 Z M 18.863281 5.769531 " clip-rule="nonzero"/></clipPath><clipPath id="9ab870fa65"><path d="M 25.230469 7.890625 L 25.230469 26.652344 L 18.863281 24.53125 L 18.863281 5.769531 Z M 25.230469 7.890625 " clip-rule="nonzero"/></clipPath><clipPath id="68803831b6"><path d="M 13.546875 5.757812 L 18.871094 5.757812 L 18.871094 11.746094 L 13.546875 11.746094 Z M 13.546875 5.757812 " clip-rule="nonzero"/></clipPath><clipPath id="d310abb728"><path d="M 13.546875 7.53125 L 13.546875 11.746094 L 18.871094 9.972656 L 18.871094 5.757812 Z M 13.546875 7.53125 " clip-rule="nonzero"/></clipPath><clipPath id="3a35017f96"><path d="M 8.972656 12.082031 L 13.539062 12.082031 L 13.539062 24.613281 L 8.972656 24.613281 Z M 8.972656 12.082031 " clip-rule="nonzero"/></clipPath><clipPath id="64bb16e334"><path d="M 13.539062 13.605469 L 13.539062 24.605469 L 8.972656 23.082031 L 8.972656 12.082031 Z M 13.539062 13.605469 " clip-rule="nonzero"/></clipPath><clipPath id="14b2dcd4ff"><path d="M 5.375 12.070312 L 8.972656 12.070312 L 8.972656 20.84375 L 5.375 20.84375 Z M 5.375 12.070312 " clip-rule="nonzero"/></clipPath><clipPath id="480171942c"><path d="M 5.375 13.277344 L 5.375 20.84375 L 8.972656 19.644531 L 8.972656 12.078125 Z M 5.375 13.277344 " clip-rule="nonzero"/></clipPath></defs><g clip-path="url(#54f0626616)"><g clip-path="url(#2d42079489)"><path fill="#16796f" d="M 0 0 L 34.007812 0 L 34.007812 34.007812 L 0 34.007812 Z M 0 0 " fill-opacity="1" fill-rule="nonzero"/></g></g><g clip-path="url(#0bf7eed05b)"><g clip-path="url(#9ab870fa65)"><path fill="#f8fbfd" d="M 25.230469 5.769531 L 25.230469 26.640625 L 18.863281 26.640625 L 18.863281 5.769531 Z M 25.230469 5.769531 " fill-opacity="1" fill-rule="nonzero"/></g></g><g clip-path="url(#68803831b6)"><g clip-path="url(#d310abb728)"><path fill="#e4e3de" d="M 13.546875 11.746094 L 13.546875 5.757812 L 18.871094 5.757812 L 18.871094 11.746094 Z M 13.546875 11.746094 " fill-opacity="1" fill-rule="nonzero"/></g></g><g clip-path="url(#3a35017f96)"><g clip-path="url(#64bb16e334)"><path fill="#f8fbfd" d="M 13.539062 12.082031 L 13.539062 24.613281 L 8.972656 24.613281 L 8.972656 12.082031 Z M 13.539062 12.082031 " fill-opacity="1" fill-rule="nonzero"/></g></g><g clip-path="url(#14b2dcd4ff)"><g clip-path="url(#480171942c)"><path fill="#e4e3de" d="M 5.375 20.84375 L 5.375 12.082031 L 8.972656 12.082031 L 8.972656 20.84375 Z M 5.375 20.84375 " fill-opacity="1" fill-rule="nonzero"/></g></g></svg>