<svg xmlns="http://www.w3.org/2000/svg" xmlns:xlink="http://www.w3.org/1999/xlink" width="500" zoomAndPan="magnify" viewBox="0 0 375 374.999991" height="500" preserveAspectRatio="xMidYMid meet" version="1.0"><defs><g/><clipPath id="a630aad838"><path d="M 191.007812 167.25 L 198.507812 167.25 L 198.507812 174.75 L 191.007812 174.75 Z M 191.007812 167.25 " clip-rule="nonzero"/></clipPath><clipPath id="5fae89634e"><path d="M 84.449219 136.457031 L 110.847656 136.457031 L 110.847656 223 L 84.449219 223 Z M 84.449219 136.457031 " clip-rule="nonzero"/></clipPath><clipPath id="4944558e39"><path d="M 110.847656 145.257812 L 110.847656 223.03125 L 84.449219 214.230469 L 84.449219 136.457031 Z M 110.847656 145.257812 " clip-rule="nonzero"/></clipPath><clipPath id="0a2c1cdf5f"><path d="M 62.378906 136.449219 L 84.453125 136.449219 L 84.453125 161.28125 L 62.378906 161.28125 Z M 62.378906 136.449219 " clip-rule="nonzero"/></clipPath><clipPath id="d07b028b7a"><path d="M 62.378906 143.808594 L 62.378906 161.28125 L 84.453125 153.925781 L 84.453125 136.453125 Z M 62.378906 143.808594 " clip-rule="nonzero"/></clipPath><clipPath id="e48728ffdf"><path d="M 52.417969 157.820312 L 71.359375 157.820312 L 71.359375 209.761719 L 52.417969 209.761719 Z M 52.417969 157.820312 " clip-rule="nonzero"/></clipPath><clipPath id="c8b2c1027a"><path d="M 71.359375 164.136719 L 71.359375 209.730469 L 52.417969 203.414062 L 52.417969 157.820312 Z M 71.359375 164.136719 " clip-rule="nonzero"/></clipPath><clipPath id="b6808becf1"><path d="M 37.5 157.773438 L 52.421875 157.773438 L 52.421875 194.148438 L 37.5 194.148438 Z M 37.5 157.773438 " clip-rule="nonzero"/></clipPath><clipPath id="0e7a37080b"><path d="M 37.5 162.792969 L 37.5 194.148438 L 52.421875 189.171875 L 52.421875 157.816406 Z M 37.5 162.792969 " clip-rule="nonzero"/></clipPath></defs><g fill="#f8fbfd" fill-opacity="1"><g transform="translate(125.789571, 183.247152)"><g><path d="M 10.859375 0.421875 C 8.941406 0.421875 7.085938 0.160156 5.296875 -0.359375 C 3.503906 -0.878906 2.0625 -1.554688 0.96875 -2.390625 L 2.875 -6.625 C 3.914062 -5.863281 5.148438 -5.25 6.578125 -4.78125 C 8.015625 -4.320312 9.453125 -4.09375 10.890625 -4.09375 C 12.484375 -4.09375 13.660156 -4.328125 14.421875 -4.796875 C 15.191406 -5.273438 15.578125 -5.90625 15.578125 -6.6875 C 15.578125 -7.269531 15.347656 -7.75 14.890625 -8.125 C 14.441406 -8.507812 13.863281 -8.816406 13.15625 -9.046875 C 12.457031 -9.285156 11.503906 -9.539062 10.296875 -9.8125 C 8.453125 -10.25 6.9375 -10.6875 5.75 -11.125 C 4.570312 -11.570312 3.5625 -12.28125 2.71875 -13.25 C 1.875 -14.21875 1.453125 -15.515625 1.453125 -17.140625 C 1.453125 -18.546875 1.832031 -19.820312 2.59375 -20.96875 C 3.363281 -22.113281 4.515625 -23.019531 6.046875 -23.6875 C 7.585938 -24.363281 9.46875 -24.703125 11.6875 -24.703125 C 13.238281 -24.703125 14.753906 -24.515625 16.234375 -24.140625 C 17.710938 -23.773438 19.007812 -23.242188 20.125 -22.546875 L 18.390625 -18.28125 C 16.140625 -19.550781 13.894531 -20.1875 11.65625 -20.1875 C 10.082031 -20.1875 8.921875 -19.929688 8.171875 -19.421875 C 7.421875 -18.910156 7.046875 -18.238281 7.046875 -17.40625 C 7.046875 -16.582031 7.476562 -15.96875 8.34375 -15.5625 C 9.207031 -15.15625 10.53125 -14.753906 12.3125 -14.359375 C 14.164062 -13.921875 15.679688 -13.484375 16.859375 -13.046875 C 18.035156 -12.609375 19.046875 -11.914062 19.890625 -10.96875 C 20.734375 -10.019531 21.15625 -8.734375 21.15625 -7.109375 C 21.15625 -5.722656 20.765625 -4.457031 19.984375 -3.3125 C 19.210938 -2.164062 18.050781 -1.253906 16.5 -0.578125 C 14.957031 0.0859375 13.078125 0.421875 10.859375 0.421875 Z M 10.859375 0.421875 "/></g></g></g><g fill="#f8fbfd" fill-opacity="1"><g transform="translate(151.311966, 183.247152)"><g><path d="M 14.5 0.421875 C 12.019531 0.421875 9.78125 -0.113281 7.78125 -1.1875 C 5.78125 -2.269531 4.207031 -3.765625 3.0625 -5.671875 C 1.925781 -7.578125 1.359375 -9.734375 1.359375 -12.140625 C 1.359375 -14.546875 1.925781 -16.703125 3.0625 -18.609375 C 4.207031 -20.515625 5.78125 -22.003906 7.78125 -23.078125 C 9.78125 -24.160156 12.03125 -24.703125 14.53125 -24.703125 C 16.632812 -24.703125 18.535156 -24.332031 20.234375 -23.59375 C 21.941406 -22.851562 23.375 -21.785156 24.53125 -20.390625 L 20.921875 -17.0625 C 19.273438 -18.957031 17.238281 -19.90625 14.8125 -19.90625 C 13.3125 -19.90625 11.96875 -19.578125 10.78125 -18.921875 C 9.601562 -18.265625 8.6875 -17.34375 8.03125 -16.15625 C 7.375 -14.976562 7.046875 -13.640625 7.046875 -12.140625 C 7.046875 -10.640625 7.375 -9.296875 8.03125 -8.109375 C 8.6875 -6.929688 9.601562 -6.015625 10.78125 -5.359375 C 11.96875 -4.703125 13.3125 -4.375 14.8125 -4.375 C 17.238281 -4.375 19.273438 -5.332031 20.921875 -7.25 L 24.53125 -3.921875 C 23.375 -2.503906 21.9375 -1.425781 20.21875 -0.6875 C 18.507812 0.0507812 16.601562 0.421875 14.5 0.421875 Z M 14.5 0.421875 "/></g></g></g><g fill="#f8fbfd" fill-opacity="1"><g transform="translate(180.128553, 183.247152)"><g><path d="M 14.640625 0.421875 C 12.117188 0.421875 9.84375 -0.117188 7.8125 -1.203125 C 5.789062 -2.296875 4.207031 -3.796875 3.0625 -5.703125 C 1.925781 -7.609375 1.359375 -9.753906 1.359375 -12.140625 C 1.359375 -14.523438 1.925781 -16.671875 3.0625 -18.578125 C 4.207031 -20.484375 5.789062 -21.976562 7.8125 -23.0625 C 9.84375 -24.15625 12.117188 -24.703125 14.640625 -24.703125 C 17.160156 -24.703125 19.425781 -24.15625 21.4375 -23.0625 C 23.445312 -21.976562 25.03125 -20.484375 26.1875 -18.578125 C 27.34375 -16.671875 27.921875 -14.523438 27.921875 -12.140625 C 27.921875 -9.753906 27.34375 -7.609375 26.1875 -5.703125 C 25.03125 -3.796875 23.445312 -2.296875 21.4375 -1.203125 C 19.425781 -0.117188 17.160156 0.421875 14.640625 0.421875 Z M 14.640625 -4.375 C 16.066406 -4.375 17.359375 -4.703125 18.515625 -5.359375 C 19.671875 -6.015625 20.578125 -6.929688 21.234375 -8.109375 C 21.898438 -9.296875 22.234375 -10.640625 22.234375 -12.140625 C 22.234375 -13.640625 21.898438 -14.976562 21.234375 -16.15625 C 20.578125 -17.34375 19.671875 -18.265625 18.515625 -18.921875 C 17.359375 -19.578125 16.066406 -19.90625 14.640625 -19.90625 C 13.203125 -19.90625 11.90625 -19.578125 10.75 -18.921875 C 9.59375 -18.265625 8.6875 -17.34375 8.03125 -16.15625 C 7.375 -14.976562 7.046875 -13.640625 7.046875 -12.140625 C 7.046875 -10.640625 7.375 -9.296875 8.03125 -8.109375 C 8.6875 -6.929688 9.59375 -6.015625 10.75 -5.359375 C 11.90625 -4.703125 13.203125 -4.375 14.640625 -4.375 Z M 14.640625 -4.375 "/></g></g></g><g fill="#f8fbfd" fill-opacity="1"><g transform="translate(212.794154, 183.247152)"><g><path d="M 13.390625 -24.28125 C 15.535156 -24.28125 17.398438 -23.921875 18.984375 -23.203125 C 20.578125 -22.484375 21.800781 -21.460938 22.65625 -20.140625 C 23.507812 -18.828125 23.9375 -17.269531 23.9375 -15.46875 C 23.9375 -13.6875 23.507812 -12.128906 22.65625 -10.796875 C 21.800781 -9.472656 20.578125 -8.457031 18.984375 -7.75 C 17.398438 -7.039062 15.535156 -6.6875 13.390625 -6.6875 L 8.5 -6.6875 L 8.5 0 L 2.875 0 L 2.875 -24.28125 Z M 13.078125 -11.28125 C 14.765625 -11.28125 16.046875 -11.640625 16.921875 -12.359375 C 17.804688 -13.085938 18.25 -14.125 18.25 -15.46875 C 18.25 -16.832031 17.804688 -17.878906 16.921875 -18.609375 C 16.046875 -19.335938 14.765625 -19.703125 13.078125 -19.703125 L 8.5 -19.703125 L 8.5 -11.28125 Z M 13.078125 -11.28125 "/></g></g></g><g fill="#f8fbfd" fill-opacity="1"><g transform="translate(241.576066, 183.247152)"><g><path d="M 21.6875 -4.515625 L 21.6875 0 L 2.875 0 L 2.875 -24.28125 L 21.234375 -24.28125 L 21.234375 -19.765625 L 8.46875 -19.765625 L 8.46875 -14.5 L 19.734375 -14.5 L 19.734375 -10.125 L 8.46875 -10.125 L 8.46875 -4.515625 Z M 21.6875 -4.515625 "/></g></g></g><g fill="#f8fbfd" fill-opacity="1"><g transform="translate(268.242755, 183.247152)"><g><path d="M 2.875 -24.28125 L 13.90625 -24.28125 C 16.539062 -24.28125 18.867188 -23.773438 20.890625 -22.765625 C 22.921875 -21.765625 24.492188 -20.347656 25.609375 -18.515625 C 26.734375 -16.691406 27.296875 -14.566406 27.296875 -12.140625 C 27.296875 -9.710938 26.734375 -7.582031 25.609375 -5.75 C 24.492188 -3.925781 22.921875 -2.507812 20.890625 -1.5 C 18.867188 -0.5 16.539062 0 13.90625 0 L 2.875 0 Z M 13.625 -4.609375 C 16.0625 -4.609375 18 -5.285156 19.4375 -6.640625 C 20.882812 -7.992188 21.609375 -9.828125 21.609375 -12.140625 C 21.609375 -14.453125 20.882812 -16.285156 19.4375 -17.640625 C 18 -18.992188 16.0625 -19.671875 13.625 -19.671875 L 8.5 -19.671875 L 8.5 -4.609375 Z M 13.625 -4.609375 "/></g></g></g><g clip-path="url(#a630aad838)"><path fill="#f8fbfd" d="M 194.71875 167.25 C 196.765625 167.25 198.425781 168.910156 198.425781 170.957031 C 198.425781 173.007812 196.765625 174.667969 194.71875 174.667969 C 192.667969 174.667969 191.007812 173.007812 191.007812 170.957031 C 191.007812 168.910156 192.667969 167.25 194.71875 167.25 Z M 194.71875 167.25 " fill-opacity="1" fill-rule="evenodd"/></g><g fill="#f8fbfd" fill-opacity="1"><g transform="translate(125.789571, 215.752822)"><g><path d="M 10.65625 0.203125 C 8.84375 0.203125 7.109375 -0.0820312 5.453125 -0.65625 C 3.804688 -1.238281 2.53125 -2.003906 1.625 -2.953125 L 2.640625 -4.921875 C 3.515625 -4.046875 4.679688 -3.335938 6.140625 -2.796875 C 7.597656 -2.253906 9.101562 -1.984375 10.65625 -1.984375 C 12.820312 -1.984375 14.445312 -2.378906 15.53125 -3.171875 C 16.625 -3.972656 17.171875 -5.007812 17.171875 -6.28125 C 17.171875 -7.25 16.875 -8.019531 16.28125 -8.59375 C 15.695312 -9.175781 14.972656 -9.625 14.109375 -9.9375 C 13.253906 -10.25 12.066406 -10.59375 10.546875 -10.96875 C 8.722656 -11.425781 7.265625 -11.867188 6.171875 -12.296875 C 5.085938 -12.722656 4.15625 -13.375 3.375 -14.25 C 2.601562 -15.132812 2.21875 -16.328125 2.21875 -17.828125 C 2.21875 -19.054688 2.539062 -20.171875 3.1875 -21.171875 C 3.832031 -22.179688 4.828125 -22.984375 6.171875 -23.578125 C 7.515625 -24.179688 9.179688 -24.484375 11.171875 -24.484375 C 12.554688 -24.484375 13.910156 -24.289062 15.234375 -23.90625 C 16.566406 -23.53125 17.722656 -23.007812 18.703125 -22.34375 L 17.828125 -20.296875 C 16.804688 -20.960938 15.71875 -21.460938 14.5625 -21.796875 C 13.40625 -22.128906 12.273438 -22.296875 11.171875 -22.296875 C 9.046875 -22.296875 7.441406 -21.882812 6.359375 -21.0625 C 5.285156 -20.25 4.75 -19.195312 4.75 -17.90625 C 4.75 -16.925781 5.039062 -16.140625 5.625 -15.546875 C 6.21875 -14.960938 6.957031 -14.515625 7.84375 -14.203125 C 8.738281 -13.890625 9.941406 -13.550781 11.453125 -13.1875 C 13.234375 -12.738281 14.671875 -12.300781 15.765625 -11.875 C 16.859375 -11.445312 17.785156 -10.800781 18.546875 -9.9375 C 19.316406 -9.070312 19.703125 -7.898438 19.703125 -6.421875 C 19.703125 -5.191406 19.367188 -4.070312 18.703125 -3.0625 C 18.046875 -2.0625 17.035156 -1.265625 15.671875 -0.671875 C 14.304688 -0.0859375 12.632812 0.203125 10.65625 0.203125 Z M 10.65625 0.203125 "/></g></g></g><g fill="#f8fbfd" fill-opacity="1"><g transform="translate(150.514427, 215.752822)"><g><path d="M 14.5625 0.203125 C 12.164062 0.203125 9.988281 -0.332031 8.03125 -1.40625 C 6.070312 -2.476562 4.539062 -3.953125 3.4375 -5.828125 C 2.34375 -7.703125 1.796875 -9.804688 1.796875 -12.140625 C 1.796875 -14.472656 2.34375 -16.578125 3.4375 -18.453125 C 4.539062 -20.328125 6.070312 -21.800781 8.03125 -22.875 C 9.988281 -23.945312 12.164062 -24.484375 14.5625 -24.484375 C 16.96875 -24.484375 19.132812 -23.953125 21.0625 -22.890625 C 23 -21.828125 24.519531 -20.351562 25.625 -18.46875 C 26.738281 -16.582031 27.296875 -14.472656 27.296875 -12.140625 C 27.296875 -9.804688 26.738281 -7.695312 25.625 -5.8125 C 24.519531 -3.925781 23 -2.453125 21.0625 -1.390625 C 19.132812 -0.328125 16.96875 0.203125 14.5625 0.203125 Z M 14.5625 -2.078125 C 16.488281 -2.078125 18.222656 -2.507812 19.765625 -3.375 C 21.316406 -4.25 22.53125 -5.453125 23.40625 -6.984375 C 24.289062 -8.523438 24.734375 -10.242188 24.734375 -12.140625 C 24.734375 -14.035156 24.289062 -15.75 23.40625 -17.28125 C 22.53125 -18.820312 21.316406 -20.023438 19.765625 -20.890625 C 18.222656 -21.765625 16.488281 -22.203125 14.5625 -22.203125 C 12.644531 -22.203125 10.90625 -21.765625 9.34375 -20.890625 C 7.78125 -20.023438 6.554688 -18.820312 5.671875 -17.28125 C 4.785156 -15.75 4.34375 -14.035156 4.34375 -12.140625 C 4.34375 -10.242188 4.785156 -8.523438 5.671875 -6.984375 C 6.554688 -5.453125 7.78125 -4.25 9.34375 -3.375 C 10.90625 -2.507812 12.644531 -2.078125 14.5625 -2.078125 Z M 14.5625 -2.078125 "/></g></g></g><g fill="#f8fbfd" fill-opacity="1"><g transform="translate(183.006651, 215.752822)"><g><path d="M 3.953125 -24.28125 L 6.515625 -24.28125 L 6.515625 -2.21875 L 20.125 -2.21875 L 20.125 0 L 3.953125 0 Z M 3.953125 -24.28125 "/></g></g></g><g fill="#f8fbfd" fill-opacity="1"><g transform="translate(206.82993, 215.752822)"><g><path d="M 13.734375 0.203125 C 10.585938 0.203125 8.132812 -0.695312 6.375 -2.5 C 4.625 -4.300781 3.75 -6.925781 3.75 -10.375 L 3.75 -24.28125 L 6.3125 -24.28125 L 6.3125 -10.46875 C 6.3125 -7.65625 6.945312 -5.550781 8.21875 -4.15625 C 9.488281 -2.769531 11.328125 -2.078125 13.734375 -2.078125 C 16.160156 -2.078125 18.007812 -2.769531 19.28125 -4.15625 C 20.550781 -5.550781 21.1875 -7.65625 21.1875 -10.46875 L 21.1875 -24.28125 L 23.6875 -24.28125 L 23.6875 -10.375 C 23.6875 -6.925781 22.8125 -4.300781 21.0625 -2.5 C 19.320312 -0.695312 16.878906 0.203125 13.734375 0.203125 Z M 13.734375 0.203125 "/></g></g></g><g fill="#f8fbfd" fill-opacity="1"><g transform="translate(237.692389, 215.752822)"><g><path d="M 8.671875 -22.0625 L 0.140625 -22.0625 L 0.140625 -24.28125 L 19.765625 -24.28125 L 19.765625 -22.0625 L 11.234375 -22.0625 L 11.234375 0 L 8.671875 0 Z M 8.671875 -22.0625 "/></g></g></g><g fill="#f8fbfd" fill-opacity="1"><g transform="translate(260.995534, 215.752822)"><g><path d="M 3.953125 -24.28125 L 6.515625 -24.28125 L 6.515625 0 L 3.953125 0 Z M 3.953125 -24.28125 "/></g></g></g><g fill="#f8fbfd" fill-opacity="1"><g transform="translate(274.86687, 215.752822)"><g><path d="M 14.5625 0.203125 C 12.164062 0.203125 9.988281 -0.332031 8.03125 -1.40625 C 6.070312 -2.476562 4.539062 -3.953125 3.4375 -5.828125 C 2.34375 -7.703125 1.796875 -9.804688 1.796875 -12.140625 C 1.796875 -14.472656 2.34375 -16.578125 3.4375 -18.453125 C 4.539062 -20.328125 6.070312 -21.800781 8.03125 -22.875 C 9.988281 -23.945312 12.164062 -24.484375 14.5625 -24.484375 C 16.96875 -24.484375 19.132812 -23.953125 21.0625 -22.890625 C 23 -21.828125 24.519531 -20.351562 25.625 -18.46875 C 26.738281 -16.582031 27.296875 -14.472656 27.296875 -12.140625 C 27.296875 -9.804688 26.738281 -7.695312 25.625 -5.8125 C 24.519531 -3.925781 23 -2.453125 21.0625 -1.390625 C 19.132812 -0.328125 16.96875 0.203125 14.5625 0.203125 Z M 14.5625 -2.078125 C 16.488281 -2.078125 18.222656 -2.507812 19.765625 -3.375 C 21.316406 -4.25 22.53125 -5.453125 23.40625 -6.984375 C 24.289062 -8.523438 24.734375 -10.242188 24.734375 -12.140625 C 24.734375 -14.035156 24.289062 -15.75 23.40625 -17.28125 C 22.53125 -18.820312 21.316406 -20.023438 19.765625 -20.890625 C 18.222656 -21.765625 16.488281 -22.203125 14.5625 -22.203125 C 12.644531 -22.203125 10.90625 -21.765625 9.34375 -20.890625 C 7.78125 -20.023438 6.554688 -18.820312 5.671875 -17.28125 C 4.785156 -15.75 4.34375 -14.035156 4.34375 -12.140625 C 4.34375 -10.242188 4.785156 -8.523438 5.671875 -6.984375 C 6.554688 -5.453125 7.78125 -4.25 9.34375 -3.375 C 10.90625 -2.507812 12.644531 -2.078125 14.5625 -2.078125 Z M 14.5625 -2.078125 "/></g></g></g><g fill="#f8fbfd" fill-opacity="1"><g transform="translate(307.359094, 215.752822)"><g><path d="M 24.25 -24.28125 L 24.25 0 L 22.125 0 L 6.515625 -19.703125 L 6.515625 0 L 3.953125 0 L 3.953125 -24.28125 L 6.078125 -24.28125 L 21.71875 -4.578125 L 21.71875 -24.28125 Z M 24.25 -24.28125 "/></g></g></g><g fill="#f8fbfd" fill-opacity="1"><g transform="translate(338.949752, 215.752822)"><g><path d="M 10.65625 0.203125 C 8.84375 0.203125 7.109375 -0.0820312 5.453125 -0.65625 C 3.804688 -1.238281 2.53125 -2.003906 1.625 -2.953125 L 2.640625 -4.921875 C 3.515625 -4.046875 4.679688 -3.335938 6.140625 -2.796875 C 7.597656 -2.253906 9.101562 -1.984375 10.65625 -1.984375 C 12.820312 -1.984375 14.445312 -2.378906 15.53125 -3.171875 C 16.625 -3.972656 17.171875 -5.007812 17.171875 -6.28125 C 17.171875 -7.25 16.875 -8.019531 16.28125 -8.59375 C 15.695312 -9.175781 14.972656 -9.625 14.109375 -9.9375 C 13.253906 -10.25 12.066406 -10.59375 10.546875 -10.96875 C 8.722656 -11.425781 7.265625 -11.867188 6.171875 -12.296875 C 5.085938 -12.722656 4.15625 -13.375 3.375 -14.25 C 2.601562 -15.132812 2.21875 -16.328125 2.21875 -17.828125 C 2.21875 -19.054688 2.539062 -20.171875 3.1875 -21.171875 C 3.832031 -22.179688 4.828125 -22.984375 6.171875 -23.578125 C 7.515625 -24.179688 9.179688 -24.484375 11.171875 -24.484375 C 12.554688 -24.484375 13.910156 -24.289062 15.234375 -23.90625 C 16.566406 -23.53125 17.722656 -23.007812 18.703125 -22.34375 L 17.828125 -20.296875 C 16.804688 -20.960938 15.71875 -21.460938 14.5625 -21.796875 C 13.40625 -22.128906 12.273438 -22.296875 11.171875 -22.296875 C 9.046875 -22.296875 7.441406 -21.882812 6.359375 -21.0625 C 5.285156 -20.25 4.75 -19.195312 4.75 -17.90625 C 4.75 -16.925781 5.039062 -16.140625 5.625 -15.546875 C 6.21875 -14.960938 6.957031 -14.515625 7.84375 -14.203125 C 8.738281 -13.890625 9.941406 -13.550781 11.453125 -13.1875 C 13.234375 -12.738281 14.671875 -12.300781 15.765625 -11.875 C 16.859375 -11.445312 17.785156 -10.800781 18.546875 -9.9375 C 19.316406 -9.070312 19.703125 -7.898438 19.703125 -6.421875 C 19.703125 -5.191406 19.367188 -4.070312 18.703125 -3.0625 C 18.046875 -2.0625 17.035156 -1.265625 15.671875 -0.671875 C 14.304688 -0.0859375 12.632812 0.203125 10.65625 0.203125 Z M 10.65625 0.203125 "/></g></g></g><g clip-path="url(#5fae89634e)"><g clip-path="url(#4944558e39)"><path fill="#f8fbfd" d="M 110.847656 136.457031 L 110.847656 222.984375 L 84.449219 222.984375 L 84.449219 136.457031 Z M 110.847656 136.457031 " fill-opacity="1" fill-rule="nonzero"/></g></g><g clip-path="url(#0a2c1cdf5f)"><g clip-path="url(#d07b028b7a)"><path fill="#c0c0c0" d="M 62.378906 161.28125 L 62.378906 136.449219 L 84.453125 136.449219 L 84.453125 161.28125 Z M 62.378906 161.28125 " fill-opacity="1" fill-rule="nonzero"/></g></g><g clip-path="url(#e48728ffdf)"><g clip-path="url(#c8b2c1027a)"><path fill="#f8fbfd" d="M 71.359375 157.820312 L 71.359375 209.761719 L 52.417969 209.761719 L 52.417969 157.820312 Z M 71.359375 157.820312 " fill-opacity="1" fill-rule="nonzero"/></g></g><g clip-path="url(#b6808becf1)"><g clip-path="url(#0e7a37080b)"><path fill="#c0c0c0" d="M 37.5 194.148438 L 37.5 157.832031 L 52.421875 157.832031 L 52.421875 194.148438 Z M 37.5 194.148438 " fill-opacity="1" fill-rule="nonzero"/></g></g></svg>